<svg xmlns="http://www.w3.org/2000/svg" width="300" height="300" viewBox="0 0 300 300">
  <defs>
    <linearGradient id="holo1" x1="0%" y1="0%" x2="100%" y2="100%">
      <stop offset="0%" style="stop-color:#60a5fa"/>
      <stop offset="33%" style="stop-color:#34d399"/>
      <stop offset="66%" style="stop-color:#a78bfa"/>
      <stop offset="100%" style="stop-color:#f472b6"/>
    </linearGradient>
    <linearGradient id="holo2" x1="100%" y1="0%" x2="0%" y2="100%">
      <stop offset="0%" style="stop-color:#22d3ee"/>
      <stop offset="50%" style="stop-color:#818cf8"/>
      <stop offset="100%" style="stop-color:#4ade80"/>
    </linearGradient>
    <linearGradient id="holo3" x1="0%" y1="100%" x2="100%" y2="0%">
      <stop offset="0%" style="stop-color:#fb7185"/>
      <stop offset="50%" style="stop-color:#38bdf8"/>
      <stop offset="100%" style="stop-color:#a3e635"/>
    </linearGradient>
  </defs>
  
  <!-- Large code brackets - top right -->
  <g fill="none" stroke="url(#holo1)" stroke-width="4" stroke-linecap="round" stroke-linejoin="round">
    <path d="M210 30 L240 30 L240 60"/>
    <path d="M250 20 L280 20 L280 50"/>
  </g>
  
  <!-- Large code brackets - bottom left -->
  <g fill="none" stroke="url(#holo2)" stroke-width="4" stroke-linecap="round" stroke-linejoin="round">
    <path d="M30 210 L30 240 L60 240"/>
    <path d="M20 250 L20 280 L50 280"/>
  </g>
  
  <!-- Center diamond -->
  <g fill="none" stroke="url(#holo3)" stroke-width="3.5" stroke-linecap="round" stroke-linejoin="round">
    <path d="M130 140 L150 120 L170 140 L150 160 Z"/>
  </g>
  
  <!-- Scattered brackets - various positions -->
  <g fill="none" stroke="url(#holo1)" stroke-width="3" stroke-linecap="round" stroke-linejoin="round">
    <path d="M40 70 L60 70 L60 90"/>
    <path d="M230 180 L230 200 L250 200"/>
    <path d="M80 250 L100 250 L100 270"/>
  </g>
  
  <g fill="none" stroke="url(#holo2)" stroke-width="3" stroke-linecap="round" stroke-linejoin="round">
    <path d="M260 100 L260 120 L280 120"/>
    <path d="M20 120 L40 120 L40 140"/>
    <path d="M180 260 L200 260 L200 280"/>
  </g>
  
  <g fill="none" stroke="url(#holo3)" stroke-width="3" stroke-linecap="round" stroke-linejoin="round">
    <path d="M100 30 L120 30 L120 50"/>
    <path d="M270 220 L270 240 L290 240"/>
    <path d="M10 180 L30 180 L30 200"/>
  </g>
  
  <!-- Small brackets -->
  <g fill="none" stroke="url(#holo1)" stroke-width="2.5" stroke-linecap="round" stroke-linejoin="round">
    <path d="M160 50 L175 50 L175 65"/>
    <path d="M50 160 L50 175 L65 175"/>
    <path d="M220 130 L235 130 L235 145"/>
  </g>
  
  <g fill="none" stroke="url(#holo2)" stroke-width="2.5" stroke-linecap="round" stroke-linejoin="round">
    <path d="M130 220 L145 220 L145 235"/>
    <path d="M70 100 L85 100 L85 115"/>
  </g>
  
  <!-- Decorative dots -->
  <g fill="url(#holo1)">
    <circle cx="75" cy="150" r="3"/>
    <circle cx="225" cy="150" r="3"/>
    <circle cx="150" cy="75" r="3"/>
    <circle cx="150" cy="225" r="3"/>
  </g>
  
  <g fill="url(#holo2)">
    <circle cx="50" cy="50" r="2.5"/>
    <circle cx="250" cy="250" r="2.5"/>
    <circle cx="250" cy="50" r="2"/>
    <circle cx="50" cy="250" r="2"/>
  </g>
  
  <g fill="url(#holo3)">
    <circle cx="100" cy="200" r="2"/>
    <circle cx="200" cy="100" r="2"/>
    <circle cx="180" cy="180" r="1.5"/>
    <circle cx="120" cy="120" r="1.5"/>
  </g>
</svg>