<svg xmlns="http://www.w3.org/2000/svg" width="200" height="200" viewBox="0 0 200 200">
  <defs>
    <linearGradient id="holo1" x1="0%" y1="0%" x2="100%" y2="100%">
      <stop offset="0%" style="stop-color:#60a5fa"/>
      <stop offset="50%" style="stop-color:#34d399"/>
      <stop offset="100%" style="stop-color:#a78bfa"/>
    </linearGradient>
    <linearGradient id="holo2" x1="100%" y1="0%" x2="0%" y2="100%">
      <stop offset="0%" style="stop-color:#f472b6"/>
      <stop offset="50%" style="stop-color:#38bdf8"/>
      <stop offset="100%" style="stop-color:#4ade80"/>
    </linearGradient>
  </defs>
  
  <!-- Code brackets --> 
  <g fill="none" stroke="url(#holo1)" stroke-width="3" stroke-linecap="round" stroke-linejoin="round">
    <!-- Top right brackets -->
    <path d="M140 20 L155 20 L155 35" opacity="0.8"/>
    <path d="M165 25 L180 25 L180 40" opacity="0.6"/>
    
    <!-- Bottom left brackets -->
    <path d="M20 140 L20 155 L35 155" opacity="0.7"/>
    <path d="M25 165 L25 180 L40 180" opacity="0.5"/>
  </g>
  
  <g fill="none" stroke="url(#holo2)" stroke-width="3" stroke-linecap="round" stroke-linejoin="round">
    <!-- Center decorative -->
    <path d="M85 90 L100 75 L115 90 L100 105 Z" opacity="0.6"/>
    
    <!-- Scattered brackets -->
    <path d="M30 50 L45 50 L45 65" opacity="0.5"/>
    <path d="M150 130 L150 145 L165 145" opacity="0.7"/>
    <path d="M60 170 L75 170 L75 185" opacity="0.4"/>
    <path d="M170 60 L170 75 L185 75" opacity="0.6"/>
  </g>
  
  <!-- Dots decoration -->
  <g fill="url(#holo1)">
    <circle cx="50" cy="100" r="2" opacity="0.5"/>
    <circle cx="150" cy="100" r="2" opacity="0.5"/>
    <circle cx="100" cy="50" r="2" opacity="0.5"/>
    <circle cx="100" cy="150" r="2" opacity="0.5"/>
    <circle cx="70" cy="30" r="1.5" opacity="0.4"/>
    <circle cx="130" cy="170" r="1.5" opacity="0.4"/>
  </g>
</svg>